<svg width="192" height="80" viewBox="0 0 192 80" fill="none" xmlns="http://www.w3.org/2000/svg">
<path d="M110 8C121.314 8 126.971 7.99993 130.485 11.5146C134 15.0294 134 20.6863 134 32V48C134 59.3137 134 64.9706 130.485 68.4854L130.149 68.8047C126.612 72.0001 120.96 72 110 72H94C83.0399 72 77.3885 72.0001 73.8506 68.8047L73.5146 68.4854C70.6854 65.6561 70.1349 61.4387 70.0273 54H74.0283C74.0677 56.7025 74.1635 58.8497 74.4033 60.6338C74.783 63.458 75.4525 64.7669 76.3428 65.6572C77.2331 66.5475 78.542 67.217 81.3662 67.5967C84.3054 67.9918 88.2304 68 94 68H110C115.77 68 119.695 67.9918 122.634 67.5967C125.458 67.217 126.767 66.5475 127.657 65.6572C128.548 64.7669 129.217 63.458 129.597 60.6338C129.992 57.6946 130 53.7696 130 48V32C130 26.2304 129.992 22.3054 129.597 19.3662C129.217 16.542 128.548 15.2331 127.657 14.3428C126.767 13.4525 125.458 12.783 122.634 12.4033C119.695 12.0082 115.77 12 110 12H94C88.2304 12 84.3054 12.0082 81.3662 12.4033C78.542 12.783 77.2331 13.4525 76.3428 14.3428C75.4525 15.2331 74.783 16.542 74.4033 19.3662C74.1346 21.3649 74.0465 23.8195 74.0166 27H70.0166C70.0919 18.9348 70.561 14.4683 73.5146 11.5146C77.0294 7.99993 82.6863 8 94 8H110Z" fill="#3869EC"/>
<path d="M86.9805 17.0117V50H82.5859V17.0117H86.9805Z" fill="black"/>
<path d="M78.3281 31.7969V37.6367C77.3255 36.4128 76.4271 35.5729 75.6328 35.1172C74.8516 34.6484 73.9336 34.4141 72.8789 34.4141C71.2253 34.4141 69.8516 34.9935 68.7578 36.1523C67.6641 37.3112 67.1172 38.763 67.1172 40.5078C67.1172 42.2917 67.6445 43.7565 68.6992 44.9023C69.7669 46.0482 71.1276 46.6211 72.7812 46.6211C73.8359 46.6211 74.7669 46.3932 75.5742 45.9375C76.3555 45.4948 77.2734 44.6354 78.3281 43.3594V49.1602C76.5443 50.0846 74.7604 50.5469 72.9766 50.5469C70.0339 50.5469 67.5729 49.5964 65.5938 47.6953C63.6146 45.7812 62.625 43.4049 62.625 40.5664C62.625 37.7279 63.6276 35.332 65.6328 33.3789C67.638 31.4258 70.099 30.4492 73.0156 30.4492C74.8906 30.4492 76.6615 30.8984 78.3281 31.7969Z" fill="black"/>
<path d="M46.1211 30.9766V41.8945C46.1211 45.0456 47.3646 46.6211 49.8516 46.6211C52.3385 46.6211 53.582 45.0456 53.582 41.8945V30.9766H57.9766V41.9922C57.9766 43.5156 57.7878 44.8307 57.4102 45.9375C57.0456 46.9271 56.4141 47.819 55.5156 48.6133C54.0312 49.9023 52.1432 50.5469 49.8516 50.5469C47.5729 50.5469 45.6914 49.9023 44.207 48.6133C43.2956 47.819 42.651 46.9271 42.2734 45.9375C41.9089 45.0521 41.7266 43.737 41.7266 41.9922V30.9766H46.1211Z" fill="black"/>
<path d="M19.7734 30.9766H24.1875V32.7344C25.724 31.2109 27.4557 30.4492 29.3828 30.4492C31.5964 30.4492 33.3216 31.1458 34.5586 32.5391C35.6263 33.724 36.1602 35.6576 36.1602 38.3398V50H31.7461V39.375C31.7461 37.5 31.4857 36.2044 30.9648 35.4883C30.457 34.7591 29.5326 34.3945 28.1914 34.3945C26.7331 34.3945 25.6979 34.8763 25.0859 35.8398C24.487 36.7904 24.1875 38.4505 24.1875 40.8203V50H19.7734V30.9766Z" fill="black"/>
<rect x="116" y="39" width="9" height="2" fill="black"/>
<path d="M100 34.6592C99.1125 34.9235 98.3469 35.4017 97.7031 36.0938C96.6615 37.2135 96.1406 38.6589 96.1406 40.4297C96.1406 42.3307 96.6484 43.8346 97.6641 44.9414C98.3136 45.6396 99.0923 46.12 100 46.3828V50.4189C97.8888 50.0989 96.0682 49.167 94.5391 47.6172C92.612 45.6901 91.6484 43.2682 91.6484 40.3516C91.6484 37.6042 92.6315 35.2669 94.5977 33.3398C96.1355 31.8326 97.9365 30.9172 100 30.5889V34.6592ZM104 30.665C105.899 31.0486 107.569 31.9456 109.012 33.3594C110.965 35.2995 111.941 37.6823 111.941 40.5078C111.941 43.3594 110.958 45.7487 108.992 47.6758C107.563 49.0583 105.898 49.9383 104 50.3223V46.2441C104.73 45.9681 105.366 45.542 105.906 44.9609C106.935 43.8542 107.449 42.3763 107.449 40.5273C107.449 38.6784 106.935 37.2005 105.906 36.0938C105.362 35.5084 104.726 35.0772 104 34.7979V30.665Z" fill="black"/>
</svg>
